<?xml version="1.0" encoding="utf-8"?>
<!-- Generator: Adobe Illustrator 22.1.0, SVG Export Plug-In . SVG Version: 6.00 Build 0)  -->
<svg version="1.1" id="Layer_1" xmlns="http://www.w3.org/2000/svg" xmlns:xlink="http://www.w3.org/1999/xlink" x="0px" y="0px"
	 viewBox="0 0 436.5 311" style="enable-background:new 0 0 436.5 311;" xml:space="preserve">
<style type="text/css">
	.st0{clip-path:url(#SVGID_2_);fill:#72CBD9;}
	.st1{clip-path:url(#SVGID_4_);fill:#3B6EA5;}
	.st2{clip-path:url(#SVGID_6_);fill:#6BAFD2;}
	.st3{clip-path:url(#SVGID_8_);fill:#444545;}
	.st4{clip-path:url(#SVGID_10_);fill:#444545;}
	.st5{clip-path:url(#SVGID_12_);fill:#444545;}
	.st6{clip-path:url(#SVGID_14_);fill:#444545;}
	.st7{clip-path:url(#SVGID_16_);fill:#444545;}
	.st8{clip-path:url(#SVGID_18_);fill:#444545;}
	.st9{clip-path:url(#SVGID_20_);fill:#444545;}
	.st10{clip-path:url(#SVGID_22_);fill:#444545;}
	.st11{clip-path:url(#SVGID_24_);fill:#444545;}
	.st12{clip-path:url(#SVGID_26_);fill:#444545;}
	.st13{clip-path:url(#SVGID_28_);fill:#444545;}
	.st14{clip-path:url(#SVGID_30_);fill:#444545;}
</style>
<g>
	<g>
		<defs>
			<rect id="SVGID_1_" x="-73" y="-118" width="612" height="578"/>
		</defs>
		<clipPath id="SVGID_2_">
			<use xlink:href="#SVGID_1_"  style="overflow:visible;"/>
		</clipPath>
		<path class="st0" d="M347.1,5l-0.2,0.4c21.4,17,41.1,35.7,55.3,55.3l32.2-55.8h-87.3V5z"/>
	</g>
	<g>
		<defs>
			<rect id="SVGID_3_" x="-73" y="-118" width="612" height="578"/>
		</defs>
		<clipPath id="SVGID_4_">
			<use xlink:href="#SVGID_3_"  style="overflow:visible;"/>
		</clipPath>
		<path class="st1" d="M182.4,152.3c-5.7,3.3-12.4,5.3-19.5,5.3c-21.4,0-38.8-17.4-38.8-38.8S141.5,80,162.9,80l53.3-0.2L303,232
			l99-171.3c-14.2-19.6-33.9-38.4-55.3-55.3L303.1,81L256.8,5c0,0-95.6,0-97.6,0.1c-9,0.3-17.8,1.6-26.2,3.9c-1.2,0.3-2.4,0.7-3.6,1
			c-0.5,0.2-1.1,0.3-1.6,0.5c-1.1,0.4-2.2,0.7-3.2,1.1c-0.6,0.2-1.1,0.4-1.7,0.6c-0.7,0.3-1.3,0.5-2,0.8C78.8,29.7,49,70.7,49,118.7
			c0,62.8,50.9,113.7,113.7,113.7c20.9,0,40.4-5.6,57.2-15.4L182.4,152.3z"/>
	</g>
	<g>
		<defs>
			<rect id="SVGID_5_" x="-73" y="-118" width="612" height="578"/>
		</defs>
		<clipPath id="SVGID_6_">
			<use xlink:href="#SVGID_5_"  style="overflow:visible;"/>
		</clipPath>
		<path class="st2" d="M351.1,5c21.1,4.6,45.1,13.1,66.6,28.8L434.4,5H351.1z"/>
	</g>
	<g>
		<defs>
			<rect id="SVGID_7_" x="-73" y="-118" width="612" height="578"/>
		</defs>
		<clipPath id="SVGID_8_">
			<use xlink:href="#SVGID_7_"  style="overflow:visible;"/>
		</clipPath>
		<path class="st3" d="M2.5,287.4c0-3,0.5-5.8,1.6-8.4c1-2.6,2.5-4.8,4.3-6.7c1.8-1.9,4-3.4,6.5-4.4s5.2-1.6,8.1-1.6
			c1.2,0,2.4,0.1,3.4,0.2c1.1,0.1,2.1,0.3,3,0.6c0.9,0.3,1.8,0.5,2.5,0.8c0.8,0.3,1.5,0.6,2.1,1c1.4,0.8,2.7,1.6,3.7,2.6l-1.6,1.9
			c-1-0.9-2.2-1.6-3.5-2.3c-1.1-0.6-2.5-1.1-4.1-1.6s-3.5-0.7-5.5-0.7c-2.5,0-4.9,0.5-7.1,1.4s-4.1,2.2-5.7,3.9
			c-1.6,1.7-2.9,3.6-3.8,5.9S5,284.8,5,287.4c0,2.7,0.5,5.2,1.4,7.6c0.9,2.3,2.2,4.4,3.8,6.1c1.6,1.7,3.5,3.1,5.7,4.1
			s4.6,1.5,7.2,1.5c1.1,0,2.1-0.1,3.1-0.2c1-0.2,1.9-0.4,2.8-0.6c0.9-0.3,1.7-0.6,2.4-0.9c0.7-0.3,1.4-0.7,2-1
			c1.4-0.8,2.6-1.8,3.7-2.8l1.6,1.8c-1.2,1.2-2.5,2.2-4,3.1c-0.7,0.4-1.4,0.8-2.2,1.2c-0.8,0.4-1.7,0.7-2.7,1s-2,0.5-3.1,0.7
			s-2.3,0.3-3.6,0.3c-2,0-3.9-0.3-5.7-0.8c-1.8-0.5-3.5-1.2-5-2.2s-2.9-2.1-4.2-3.4c-1.2-1.3-2.3-2.8-3.2-4.4
			c-0.9-1.6-1.5-3.3-2-5.2C2.7,291.3,2.5,289.4,2.5,287.4"/>
	</g>
	<g>
		<defs>
			<rect id="SVGID_9_" x="-73" y="-118" width="612" height="578"/>
		</defs>
		<clipPath id="SVGID_10_">
			<use xlink:href="#SVGID_9_"  style="overflow:visible;"/>
		</clipPath>
		<path class="st4" d="M48.6,267h12.1c1,0,1.8,0,2.6,0.1s1.4,0.1,2,0.2s1.1,0.2,1.6,0.4c0.5,0.2,0.9,0.3,1.3,0.5
			c0.9,0.4,1.7,1,2.4,1.6s1.3,1.4,1.8,2.2c0.5,0.8,0.9,1.8,1.2,2.8s0.4,2.1,0.4,3.3c0,1.5-0.2,2.9-0.6,4.1c-0.4,1.3-1,2.4-1.7,3.4
			s-1.6,1.8-2.6,2.5s-2.1,1.1-3.3,1.4v0.1l0.3,0.3c0.1,0.1,0.2,0.3,0.3,0.5s0.2,0.4,0.4,0.7l9.3,17.2h-3L63.3,290H51.4v18.3h-2.5
			V267H48.6z M62.4,287.6c1.4,0,2.6-0.2,3.7-0.7c1.1-0.5,2-1.1,2.8-1.9s1.4-1.8,1.8-3c0.4-1.2,0.6-2.5,0.6-3.9
			c0-1.8-0.4-3.4-1.3-4.9c-0.9-1.4-2.1-2.4-3.6-3.1c-0.3-0.1-0.6-0.3-0.9-0.3c-0.3-0.1-0.7-0.2-1.2-0.3c-0.4-0.1-1-0.1-1.6-0.2
			c-0.6,0-1.3-0.1-2.1-0.1h-9.5v18.3h11.3V287.6z"/>
	</g>
	<g>
		<defs>
			<rect id="SVGID_11_" x="-73" y="-118" width="612" height="578"/>
		</defs>
		<clipPath id="SVGID_12_">
			<use xlink:href="#SVGID_11_"  style="overflow:visible;"/>
		</clipPath>
		<polygon class="st5" points="85.3,267 108,267 108,269.3 87.9,269.3 87.9,286.3 104.4,286.3 104.4,288.7 87.9,288.7 87.9,306 
			109.1,306 109.1,308.3 85.3,308.3 		"/>
	</g>
	<g>
		<defs>
			<rect id="SVGID_13_" x="-73" y="-118" width="612" height="578"/>
		</defs>
		<clipPath id="SVGID_14_">
			<use xlink:href="#SVGID_13_"  style="overflow:visible;"/>
		</clipPath>
		<polygon class="st6" points="128.6,269.3 113.2,269.3 113.2,267 146.6,267 146.6,269.3 131.2,269.3 131.2,308.3 128.6,308.3 		"/>
	</g>
	<g>
		<defs>
			<rect id="SVGID_15_" x="-73" y="-118" width="612" height="578"/>
		</defs>
		<clipPath id="SVGID_16_">
			<use xlink:href="#SVGID_15_"  style="overflow:visible;"/>
		</clipPath>
		<path class="st7" d="M165,267h-2.7l-15.5,41.4H171v-2h-20.8c3.1-8.6,13.4-36.4,13.4-36.4h0.1l14.1,38.4h2.7L165,267z"/>
	</g>
	<g>
		<defs>
			<rect id="SVGID_17_" x="-73" y="-118" width="612" height="578"/>
		</defs>
		<clipPath id="SVGID_18_">
			<use xlink:href="#SVGID_17_"  style="overflow:visible;"/>
		</clipPath>
		<path class="st8" d="M187.9,267h2.4l23.6,32.5c0.3,0.5,0.7,1,1.1,1.6s0.8,1.2,1.1,1.7c0.4,0.6,0.8,1.3,1.2,1.9h0.1
			c-0.1-0.6-0.1-1.2-0.1-1.8c0-0.5-0.1-1.1-0.1-1.7s0-1.2,0-1.7V267h2.5v41.4h-2.4L193.7,276c-0.3-0.5-0.7-1-1.1-1.6
			s-0.8-1.2-1.1-1.7c-0.4-0.6-0.8-1.3-1.2-1.9h-0.1c0,0.6,0.1,1.2,0.1,1.8c0,0.5,0.1,1.1,0.1,1.7s0,1.2,0,1.7v32.4h-2.5V267z"/>
	</g>
	<g>
		<defs>
			<rect id="SVGID_19_" x="-73" y="-118" width="612" height="578"/>
		</defs>
		<clipPath id="SVGID_20_">
			<use xlink:href="#SVGID_19_"  style="overflow:visible;"/>
		</clipPath>
		<path class="st9" d="M240.3,266.4h8.2l9.2,27.4c0.2,0.6,0.4,1.3,0.6,2s0.3,1.4,0.5,2c0.1,0.6,0.3,1.1,0.3,1.5
			c0.1,0.4,0.1,0.6,0.2,0.6h0.1c0,0,0.1-0.2,0.2-0.6s0.2-0.9,0.3-1.5c0.1-0.6,0.3-1.3,0.5-2s0.4-1.4,0.6-2l9.3-27.4h8.2l-15.3,42
			h-7.6L240.3,266.4z"/>
	</g>
	<g>
		<defs>
			<rect id="SVGID_21_" x="-73" y="-118" width="612" height="578"/>
		</defs>
		<clipPath id="SVGID_22_">
			<use xlink:href="#SVGID_21_"  style="overflow:visible;"/>
		</clipPath>
		<rect x="283.8" y="266.4" class="st10" width="7.6" height="42"/>
	</g>
	<g>
		<defs>
			<rect id="SVGID_23_" x="-73" y="-118" width="612" height="578"/>
		</defs>
		<clipPath id="SVGID_24_">
			<use xlink:href="#SVGID_23_"  style="overflow:visible;"/>
		</clipPath>
		<polygon class="st11" points="302,266.4 309.7,266.4 309.7,301.8 327.8,301.8 327.8,308.3 302,308.3 		"/>
	</g>
	<g>
		<defs>
			<rect id="SVGID_25_" x="-73" y="-118" width="612" height="578"/>
		</defs>
		<clipPath id="SVGID_26_">
			<use xlink:href="#SVGID_25_"  style="overflow:visible;"/>
		</clipPath>
		<polygon class="st12" points="333.9,266.4 341.6,266.4 341.6,301.8 359.7,301.8 359.7,308.3 333.9,308.3 		"/>
	</g>
	<g>
		<defs>
			<rect id="SVGID_27_" x="-73" y="-118" width="612" height="578"/>
		</defs>
		<clipPath id="SVGID_28_">
			<use xlink:href="#SVGID_27_"  style="overflow:visible;"/>
		</clipPath>
		<path class="st13" d="M380,273.6c0.2,0.8,10.8,34.7,10.8,34.7h7.9l-14.8-42h-8l-14.8,42h24.1v-6.5H371c3.2-9.9,8.8-27.7,8.9-28.1
			h0.1V273.6z"/>
	</g>
	<g>
		<defs>
			<rect id="SVGID_29_" x="-73" y="-118" width="612" height="578"/>
		</defs>
		<clipPath id="SVGID_30_">
			<use xlink:href="#SVGID_29_"  style="overflow:visible;"/>
		</clipPath>
		<path class="st14" d="M405.1,297.6c0.9,0.8,1.9,1.6,3,2.2c0.9,0.6,2,1.1,3.3,1.5c1.3,0.5,2.6,0.7,4.1,0.7c0.8,0,1.5-0.1,2.3-0.3
			c0.7-0.2,1.4-0.5,1.9-0.9c0.6-0.4,1-0.9,1.4-1.6c0.3-0.6,0.5-1.4,0.5-2.3s-0.3-1.8-0.9-2.5s-1.3-1.3-2.3-1.9
			c-0.9-0.6-2-1.1-3.2-1.6s-2.4-1-3.6-1.6s-2.5-1.2-3.6-1.8c-1.2-0.7-2.2-1.5-3.2-2.4c-0.9-0.9-1.7-2-2.3-3.1
			c-0.6-1.2-0.9-2.6-0.9-4.2c0-1.7,0.4-3.3,1.1-4.8s1.7-2.8,3-3.9s2.7-1.9,4.5-2.6c1.7-0.6,3.6-0.9,5.6-0.9c2.1,0,3.9,0.2,5.5,0.7
			s2.9,1,3.9,1.5c1.2,0.7,2.3,1.4,3.1,2.3l-3.3,6.2c-0.8-0.7-1.7-1.3-2.7-1.8c-0.8-0.5-1.8-0.9-2.9-1.3s-2.3-0.6-3.7-0.6
			c-0.9,0-1.7,0.1-2.5,0.4s-1.4,0.6-2,1s-1,1-1.3,1.6s-0.5,1.3-0.5,2c0,0.9,0.3,1.7,0.9,2.4c0.6,0.7,1.3,1.3,2.2,1.8
			c0.9,0.5,2,1.1,3.2,1.5c1.2,0.5,2.4,1,3.6,1.5s2.4,1.1,3.6,1.8c1.2,0.7,2.2,1.5,3.2,2.4c0.9,0.9,1.7,2,2.2,3.2
			c0.6,1.2,0.9,2.7,0.9,4.4c0,1.7-0.3,3.3-0.9,4.7c-0.6,1.5-1.5,2.8-2.7,3.9s-2.6,2-4.3,2.7c-1.7,0.7-3.7,1-5.9,1
			c-1.2,0-2.3-0.1-3.3-0.2c-1-0.2-2-0.4-2.9-0.6c-0.9-0.3-1.7-0.6-2.5-0.9s-1.4-0.7-2.1-1.1c-1.4-0.8-2.7-1.8-3.7-2.9L405.1,297.6z"
			/>
	</g>
</g>
</svg>
