<?xml version="1.0" encoding="utf-8"?>
<!-- Generator: Adobe Illustrator 22.1.0, SVG Export Plug-In . SVG Version: 6.00 Build 0)  -->
<svg version="1.1" id="Layer_1" xmlns="http://www.w3.org/2000/svg" xmlns:xlink="http://www.w3.org/1999/xlink" x="0px" y="0px"
	 viewBox="0 0 910 910" style="enable-background:new 0 0 910 910;" xml:space="preserve" fill="#606060">
<g>
	<g>
		<g>
			<path d="M897.1,909.8H662.4c-7,0-12.7-5.7-12.7-12.7c0-7,5.7-12.7,12.7-12.7h222V25.6H25.6v858.8h489.6c7,0,12.7,5.7,12.7,12.7
				c0,7-5.7,12.7-12.7,12.7H12.9c-7,0-12.7-5.7-12.7-12.7V12.9c0-7,5.7-12.7,12.7-12.7h884.2c7,0,12.7,5.7,12.7,12.7v884.2
				C909.8,904.1,904.1,909.8,897.1,909.8z"/>
		</g>
		<g>
			<path d="M897.1,613.5H677.8c-7,0-12.7-5.7-12.7-12.7s5.7-12.7,12.7-12.7h219.3c7,0,12.7,5.7,12.7,12.7S904.1,613.5,897.1,613.5z"
				/>
		</g>
		<g>
			<path d="M546.1,613.5H12.9c-7,0-12.7-5.7-12.7-12.7s5.7-12.7,12.7-12.7h533.2c7,0,12.7,5.7,12.7,12.7S553.1,613.5,546.1,613.5z"
				/>
		</g>
		<g>
			<path d="M455,244.6c-7,0-12.7-5.7-12.7-12.7v-219c0-7,5.7-12.7,12.7-12.7c7,0,12.7,5.7,12.7,12.7v219
				C467.7,238.9,462,244.6,455,244.6z"/>
		</g>
		<g>
			<path d="M455,613.5c-7,0-12.7-5.7-12.7-12.7V357.7c0-7,5.7-12.7,12.7-12.7c7,0,12.7,5.7,12.7,12.7v243.1
				C467.7,607.9,462,613.5,455,613.5z"/>
		</g>
	</g>
	<g>
		<path d="M161,909.8c-7,0-12.7-5.7-12.7-12.7V701.9c0-7,5.7-12.7,12.7-12.7c7,0,12.7,5.7,12.7,12.7v195.2
			C173.8,904.1,168.1,909.8,161,909.8z"/>
	</g>
</g>
</svg>
