<?xml version="1.0" encoding="utf-8"?>
<!-- Generator: Adobe Illustrator 17.0.0, SVG Export Plug-In . SVG Version: 6.00 Build 0)  -->
<!DOCTYPE svg PUBLIC "-//W3C//DTD SVG 1.1//EN" "http://www.w3.org/Graphics/SVG/1.1/DTD/svg11.dtd">
<svg version="1.1" id="Layer_1" xmlns="http://www.w3.org/2000/svg" xmlns:xlink="http://www.w3.org/1999/xlink" x="0px" y="0px"
	 width="360.667px" height="254.42px" viewBox="0 0 360.667 254.42" enable-background="new 0 0 360.667 254.42"
	 xml:space="preserve">
<rect x="-126" y="-118.261" display="none" fill="#3B6EA5" width="612" height="578"/>
<g>
	<defs>
		<rect id="SVGID_1_" x="-126" y="-118.261" width="612" height="578"/>
	</defs>
	<clipPath id="SVGID_2_">
		<use xlink:href="#SVGID_1_"  overflow="visible"/>
	</clipPath>
	<path clip-path="url(#SVGID_2_)" fill="#6BAFD2" d="M293.917-0.006h-3.366l-0.208,0.359c17.958,14.251,34.49,29.966,46.369,46.42
		l13.066-22.601C331.753,10.97,311.651,3.816,293.917-0.006"/>
	<path clip-path="url(#SVGID_2_)" fill="#FFFFFF" d="M152.43,123.579c-4.8,2.794-10.363,4.421-16.318,4.421
		c-17.962,0-32.522-14.561-32.522-32.522c0-17.962,14.56-32.523,32.522-32.523l44.733-0.174l72.794,127.686l83.073-143.693
		c-11.879-16.454-28.411-32.17-46.369-46.42l-36.57,63.445L214.872,0.001c0,0-80.147-0.015-81.883,0.06
		c-7.579,0.23-14.934,1.335-21.967,3.235c-1.009,0.267-2.003,0.55-2.983,0.846c-0.457,0.14-0.909,0.291-1.363,0.437
		c-0.918,0.294-1.823,0.6-2.715,0.918c-0.478,0.17-0.955,0.341-1.429,0.518c-0.571,0.216-1.131,0.441-1.691,0.667
		C65.549,20.663,40.576,55.077,40.576,95.345c0,52.664,42.693,95.358,95.358,95.358c17.49,0,33.871-4.721,47.959-12.942
		L152.43,123.579z"/>
	<path clip-path="url(#SVGID_2_)" fill="#72CBD9" d="M293.917-0.006c17.734,3.822,37.836,10.976,55.861,24.178l13.978-24.178
		H293.917z"/>
	<path clip-path="url(#SVGID_2_)" fill="#FFFFFF" d="M1.519,236.818c0-2.519,0.44-4.854,1.32-7.01
		c0.879-2.155,2.086-4.027,3.619-5.617c1.534-1.59,3.35-2.833,5.448-3.728c2.098-0.896,4.374-1.344,6.828-1.344
		c1.033,0,1.997,0.06,2.893,0.181c0.896,0.122,1.731,0.287,2.506,0.497c0.775,0.209,1.485,0.444,2.131,0.702
		c0.645,0.258,1.226,0.524,1.743,0.798c1.211,0.646,2.252,1.373,3.123,2.18l-1.307,1.598c-0.84-0.727-1.816-1.38-2.93-1.961
		c-0.953-0.484-2.106-0.933-3.462-1.344c-1.356-0.412-2.906-0.618-4.649-0.618c-2.131,0-4.116,0.396-5.956,1.187
		s-3.43,1.884-4.77,3.281c-1.34,1.396-2.393,3.051-3.16,4.963c-0.766,1.913-1.149,3.991-1.149,6.235c0,2.26,0.378,4.374,1.138,6.343
		c0.758,1.97,1.816,3.68,3.171,5.133c1.356,1.453,2.962,2.599,4.818,3.438c1.856,0.84,3.874,1.259,6.054,1.259
		c0.92,0,1.795-0.069,2.627-0.206c0.831-0.137,1.61-0.315,2.336-0.532c0.726-0.218,1.4-0.468,2.022-0.751
		c0.621-0.283,1.182-0.569,1.682-0.86c1.178-0.693,2.204-1.484,3.075-2.372l1.332,1.477c-0.968,0.984-2.099,1.864-3.39,2.638
		c-0.565,0.339-1.186,0.666-1.864,0.982c-0.678,0.314-1.42,0.593-2.228,0.835c-0.807,0.242-1.679,0.439-2.614,0.593
		c-0.937,0.153-1.929,0.23-2.978,0.23c-1.695,0-3.298-0.218-4.806-0.654c-1.51-0.436-2.91-1.045-4.201-1.827
		c-1.292-0.784-2.454-1.732-3.487-2.846c-1.033-1.113-1.917-2.344-2.651-3.692c-0.735-1.347-1.295-2.796-1.683-4.346
		C1.713,240.11,1.519,238.497,1.519,236.818"/>
	<path clip-path="url(#SVGID_2_)" fill="#FFFFFF" d="M40.234,219.701h10.169c0.807,0,1.521,0.024,2.143,0.072
		c0.621,0.049,1.178,0.113,1.67,0.194c0.492,0.08,0.936,0.19,1.332,0.326c0.395,0.138,0.763,0.288,1.102,0.449
		c0.726,0.371,1.383,0.827,1.973,1.368c0.589,0.541,1.093,1.162,1.513,1.864c0.419,0.702,0.747,1.481,0.98,2.336
		c0.234,0.856,0.352,1.776,0.352,2.761c0,1.243-0.17,2.396-0.509,3.462c-0.339,1.065-0.819,2.017-1.44,2.857
		c-0.622,0.839-1.356,1.537-2.204,2.094c-0.847,0.557-1.779,0.949-2.796,1.175v0.096l0.218,0.29
		c0.081,0.098,0.165,0.227,0.254,0.388c0.088,0.162,0.198,0.348,0.327,0.557l7.772,14.43h-2.518l-8.232-15.375h-9.975v15.375h-2.131
		V219.701z M51.783,237.06c1.146,0,2.179-0.193,3.099-0.581c0.92-0.387,1.703-0.932,2.349-1.634c0.645-0.702,1.141-1.546,1.489-2.53
		c0.347-0.984,0.52-2.067,0.52-3.244c0-1.533-0.363-2.89-1.089-4.068s-1.72-2.049-2.978-2.615c-0.243-0.113-0.505-0.21-0.787-0.291
		c-0.283-0.08-0.61-0.153-0.981-0.218c-0.372-0.064-0.807-0.112-1.307-0.145c-0.501-0.031-1.098-0.048-1.792-0.048h-7.941v15.374
		H51.783z"/>
	<polygon clip-path="url(#SVGID_2_)" fill="#FFFFFF" points="71.031,219.7 90.037,219.7 90.037,221.685 73.162,221.685 
		73.162,235.922 87.011,235.922 87.011,237.907 73.162,237.907 73.162,252.434 90.958,252.434 90.958,254.42 71.031,254.42 	"/>
	<polygon clip-path="url(#SVGID_2_)" fill="#FFFFFF" points="107.325,221.686 94.371,221.686 94.371,219.701 122.409,219.701 
		122.409,221.686 109.455,221.686 109.455,254.42 107.325,254.42 	"/>
	<path clip-path="url(#SVGID_2_)" fill="#FFFFFF" d="M137.855,219.7h-2.3l-12.977,34.72l20.291-0.004v-1.691h-17.452
		c2.641-7.189,11.228-30.531,11.228-30.531h0.121l11.791,32.226h2.276L137.855,219.7z"/>
	<path clip-path="url(#SVGID_2_)" fill="#FFFFFF" d="M157.08,219.7h1.986l19.781,27.238c0.274,0.404,0.581,0.852,0.92,1.344
		c0.339,0.492,0.645,0.965,0.92,1.416c0.323,0.533,0.653,1.065,0.993,1.599h0.096c-0.048-0.5-0.088-1.009-0.121-1.526
		c-0.032-0.436-0.061-0.908-0.084-1.417c-0.025-0.508-0.037-0.98-0.037-1.416V219.7h2.13v34.72h-1.984l-19.782-27.214
		c-0.29-0.403-0.601-0.856-0.932-1.357c-0.331-0.5-0.634-0.976-0.907-1.427c-0.324-0.534-0.654-1.066-0.993-1.599h-0.097
		c0.032,0.517,0.072,1.033,0.121,1.55c0.032,0.435,0.06,0.908,0.085,1.416c0.024,0.509,0.036,0.98,0.036,1.417v27.214h-2.131V219.7z
		"/>
	<path clip-path="url(#SVGID_2_)" fill="#FFFFFF" d="M201.024,219.216h6.9l7.724,22.953c0.178,0.517,0.343,1.073,0.497,1.67
		c0.153,0.598,0.29,1.154,0.411,1.671s0.218,0.948,0.291,1.296c0.073,0.347,0.116,0.52,0.133,0.52h0.121
		c0.016,0,0.061-0.173,0.133-0.52c0.073-0.348,0.17-0.779,0.291-1.296s0.258-1.073,0.411-1.671c0.153-0.597,0.318-1.153,0.497-1.67
		l7.772-22.953h6.852l-12.833,35.204h-6.367L201.024,219.216z"/>
	<rect x="237.464" y="219.216" clip-path="url(#SVGID_2_)" fill="#FFFFFF" width="6.416" height="35.204"/>
	<polygon clip-path="url(#SVGID_2_)" fill="#FFFFFF" points="252.79,219.216 259.206,219.216 259.206,248.924 274.411,248.924 
		274.411,254.42 252.79,254.42 	"/>
	<polygon clip-path="url(#SVGID_2_)" fill="#FFFFFF" points="279.52,219.216 285.935,219.216 285.935,248.924 301.14,248.924 
		301.14,254.42 279.52,254.42 	"/>
	<path clip-path="url(#SVGID_2_)" fill="#FFFFFF" d="M321.502,219.216h-6.706l-12.397,35.204l20.221-0.001v-5.491h-11.971
		c0,0,7.34-23.035,7.463-23.61h0.097c0.146,0.677,9.08,29.102,9.08,29.102h6.609L321.502,219.216z"/>
	<path clip-path="url(#SVGID_2_)" fill="#FFFFFF" d="M339.201,245.389c0.774,0.711,1.622,1.332,2.542,1.864
		c0.791,0.469,1.715,0.897,2.772,1.283c1.058,0.388,2.216,0.582,3.475,0.582c0.661,0,1.299-0.088,1.913-0.266
		c0.613-0.178,1.157-0.441,1.634-0.787c0.476-0.347,0.855-0.787,1.138-1.32c0.282-0.533,0.423-1.162,0.423-1.888
		c0-0.791-0.238-1.478-0.713-2.059c-0.477-0.581-1.106-1.109-1.889-1.586c-0.783-0.475-1.671-0.924-2.663-1.344
		c-0.993-0.418-2.01-0.863-3.051-1.331c-1.041-0.467-2.059-0.984-3.051-1.549c-0.993-0.565-1.881-1.227-2.663-1.986
		c-0.783-0.759-1.413-1.637-1.888-2.638c-0.477-1.001-0.715-2.18-0.715-3.536c0-1.453,0.298-2.804,0.896-4.055
		c0.597-1.251,1.424-2.332,2.482-3.244c1.056-0.912,2.303-1.626,3.741-2.143c1.436-0.517,3.002-0.775,4.696-0.775
		c1.744,0,3.269,0.198,4.576,0.593c1.308,0.396,2.406,0.828,3.293,1.295c1.033,0.549,1.913,1.179,2.64,1.889l-2.785,5.205
		c-0.678-0.564-1.42-1.073-2.228-1.525c-0.71-0.387-1.533-0.742-2.469-1.065c-0.936-0.323-1.961-0.484-3.075-0.484
		c-0.743,0-1.436,0.104-2.082,0.314c-0.646,0.21-1.207,0.501-1.682,0.872c-0.477,0.372-0.852,0.815-1.126,1.331
		c-0.276,0.517-0.412,1.082-0.412,1.696c0,0.774,0.238,1.444,0.714,2.009c0.476,0.565,1.102,1.078,1.876,1.538
		c0.775,0.46,1.659,0.887,2.652,1.283c0.992,0.395,2.005,0.819,3.038,1.27c1.033,0.453,2.046,0.957,3.039,1.514
		c0.992,0.557,1.876,1.223,2.651,1.997c0.775,0.775,1.4,1.68,1.876,2.712c0.477,1.033,0.715,2.252,0.715,3.656
		c0,1.405-0.263,2.728-0.787,3.971c-0.524,1.243-1.283,2.337-2.276,3.281c-0.993,0.944-2.207,1.691-3.644,2.239
		c-1.437,0.549-3.075,0.824-4.915,0.824c-0.984,0-1.909-0.07-2.772-0.206c-0.864-0.138-1.671-0.319-2.421-0.545
		c-0.751-0.226-1.446-0.48-2.082-0.763c-0.638-0.282-1.215-0.577-1.732-0.884c-1.211-0.71-2.252-1.516-3.123-2.421L339.201,245.389z
		"/>
</g>
</svg>
